static pose
version=1
nRows=1
nColumns=217
inDegrees=no
endheader
time	/jointset/ground_pelvis/pelvis_tilt/value	/jointset/ground_pelvis/pelvis_tilt/speed	/jointset/ground_pelvis/pelvis_list/value	/jointset/ground_pelvis/pelvis_list/speed	/jointset/ground_pelvis/pelvis_rotation/value	/jointset/ground_pelvis/pelvis_rotation/speed	/jointset/ground_pelvis/pelvis_tx/value	/jointset/ground_pelvis/pelvis_tx/speed	/jointset/ground_pelvis/pelvis_ty/value	/jointset/ground_pelvis/pelvis_ty/speed	/jointset/ground_pelvis/pelvis_tz/value	/jointset/ground_pelvis/pelvis_tz/speed	/jointset/ground_bb/bb_angle/value	/jointset/ground_bb/bb_angle/speed	/jointset/ground_bb/bb_tx/value	/jointset/ground_bb/bb_tx/speed	/jointset/ground_bb/bb_ty/value	/jointset/ground_bb/bb_ty/speed	/jointset/ground_bb/bb_tz/value	/jointset/ground_bb/bb_tz/speed	/jointset/hip_r/hip_flexion_r/value	/jointset/hip_r/hip_flexion_r/speed	/jointset/hip_r/hip_adduction_r/value	/jointset/hip_r/hip_adduction_r/speed	/jointset/hip_r/hip_rotation_r/value	/jointset/hip_r/hip_rotation_r/speed	/jointset/walker_knee_r/knee_angle_r/value	/jointset/walker_knee_r/knee_angle_r/speed	/jointset/patellofemoral_r/knee_angle_r_beta/value	/jointset/patellofemoral_r/knee_angle_r_beta/speed	/jointset/ankle_r/ankle_angle_r/value	/jointset/ankle_r/ankle_angle_r/speed	/jointset/subtalar_r/subtalar_angle_r/value	/jointset/subtalar_r/subtalar_angle_r/speed	/jointset/mtp_r/mtp_angle_r/value	/jointset/mtp_r/mtp_angle_r/speed	/jointset/spindle_r/crank_angle_r/value	/jointset/spindle_r/crank_angle_r/speed	/jointset/hip_l/hip_flexion_l/value	/jointset/hip_l/hip_flexion_l/speed	/jointset/hip_l/hip_adduction_l/value	/jointset/hip_l/hip_adduction_l/speed	/jointset/hip_l/hip_rotation_l/value	/jointset/hip_l/hip_rotation_l/speed	/jointset/walker_knee_l/knee_angle_l/value	/jointset/walker_knee_l/knee_angle_l/speed	/jointset/patellofemoral_l/knee_angle_l_beta/value	/jointset/patellofemoral_l/knee_angle_l_beta/speed	/jointset/ankle_l/ankle_angle_l/value	/jointset/ankle_l/ankle_angle_l/speed	/jointset/subtalar_l/subtalar_angle_l/value	/jointset/subtalar_l/subtalar_angle_l/speed	/jointset/mtp_l/mtp_angle_l/value	/jointset/mtp_l/mtp_angle_l/speed	/jointset/spindle_l/crank_angle_l/value	/jointset/spindle_l/crank_angle_l/speed	/jointset/back/lumbar_extension/value	/jointset/back/lumbar_extension/speed	/jointset/back/lumbar_bending/value	/jointset/back/lumbar_bending/speed	/jointset/back/lumbar_rotation/value	/jointset/back/lumbar_rotation/speed	/jointset/acromial_r/arm_flex_r/value	/jointset/acromial_r/arm_flex_r/speed	/jointset/acromial_r/arm_add_r/value	/jointset/acromial_r/arm_add_r/speed	/jointset/acromial_r/arm_rot_r/value	/jointset/acromial_r/arm_rot_r/speed	/jointset/elbow_r/elbow_flex_r/value	/jointset/elbow_r/elbow_flex_r/speed	/jointset/radioulnar_r/pro_sup_r/value	/jointset/radioulnar_r/pro_sup_r/speed	/jointset/radius_hand_r/wrist_flex_r/value	/jointset/radius_hand_r/wrist_flex_r/speed	/jointset/radius_hand_r/wrist_dev_r/value	/jointset/radius_hand_r/wrist_dev_r/speed	/jointset/acromial_l/arm_flex_l/value	/jointset/acromial_l/arm_flex_l/speed	/jointset/acromial_l/arm_add_l/value	/jointset/acromial_l/arm_add_l/speed	/jointset/acromial_l/arm_rot_l/value	/jointset/acromial_l/arm_rot_l/speed	/jointset/elbow_l/elbow_flex_l/value	/jointset/elbow_l/elbow_flex_l/speed	/jointset/radioulnar_l/pro_sup_l/value	/jointset/radioulnar_l/pro_sup_l/speed	/jointset/radius_hand_l/wrist_flex_l/value	/jointset/radius_hand_l/wrist_flex_l/speed	/jointset/radius_hand_l/wrist_dev_l/value	/jointset/radius_hand_l/wrist_dev_l/speed	/forceset/addbrev_r/activation	/forceset/addlong_r/activation	/forceset/addlong_r/fiber_length	/forceset/addmagDist_r/activation	/forceset/addmagIsch_r/activation	/forceset/addmagIsch_r/fiber_length	/forceset/addmagMid_r/activation	/forceset/addmagProx_r/activation	/forceset/bflh140_r/activation	/forceset/bflh140_r/fiber_length	/forceset/bfsh140_r/activation	/forceset/edl_r/activation	/forceset/edl_r/fiber_length	/forceset/ehl_r/activation	/forceset/ehl_r/fiber_length	/forceset/fdl_r/activation	/forceset/fdl_r/fiber_length	/forceset/fhl_r/activation	/forceset/fhl_r/fiber_length	/forceset/gaslat140_r/activation	/forceset/gaslat140_r/fiber_length	/forceset/gasmed_r/activation	/forceset/gasmed_r/fiber_length	/forceset/glmax1_r/activation	/forceset/glmax2_r/activation	/forceset/glmax3_r/activation	/forceset/glmed1_r/activation	/forceset/glmed2_r/activation	/forceset/glmed3_r/activation	/forceset/glmin1_r/activation	/forceset/glmin2_r/activation	/forceset/glmin3_r/activation	/forceset/glmin3_r/fiber_length	/forceset/grac_r/activation	/forceset/iliacus_r/activation	/forceset/perbrev_r/activation	/forceset/perbrev_r/fiber_length	/forceset/perlong_r/activation	/forceset/perlong_r/fiber_length	/forceset/piri_r/activation	/forceset/piri_r/fiber_length	/forceset/psoas_r/activation	/forceset/recfem_r/activation	/forceset/recfem_r/fiber_length	/forceset/sart_r/activation	/forceset/semimem_r/activation	/forceset/semimem_r/fiber_length	/forceset/semiten_r/activation	/forceset/semiten_r/fiber_length	/forceset/soleus_r/activation	/forceset/soleus_r/fiber_length	/forceset/tfl_r/activation	/forceset/tfl_r/fiber_length	/forceset/tibant_r/activation	/forceset/tibant_r/fiber_length	/forceset/tibpost_r/activation	/forceset/tibpost_r/fiber_length	/forceset/vasint_r/activation	/forceset/vasint_r/fiber_length	/forceset/vaslat140_r/activation	/forceset/vaslat140_r/fiber_length	/forceset/vasmed_r/activation	/forceset/vasmed_r/fiber_length	/forceset/addbrev_l/activation	/forceset/addlong_l/activation	/forceset/addlong_l/fiber_length	/forceset/addmagDist_l/activation	/forceset/addmagIsch_l/activation	/forceset/addmagIsch_l/fiber_length	/forceset/addmagMid_l/activation	/forceset/addmagProx_l/activation	/forceset/bflh140_l/activation	/forceset/bflh140_l/fiber_length	/forceset/bfsh140_l/activation	/forceset/edl_l/activation	/forceset/edl_l/fiber_length	/forceset/ehl_l/activation	/forceset/ehl_l/fiber_length	/forceset/fdl_l/activation	/forceset/fdl_l/fiber_length	/forceset/fhl_l/activation	/forceset/fhl_l/fiber_length	/forceset/gaslat140_l/activation	/forceset/gaslat140_l/fiber_length	/forceset/gasmed_l/activation	/forceset/gasmed_l/fiber_length	/forceset/glmax1_l/activation	/forceset/glmax2_l/activation	/forceset/glmax3_l/activation	/forceset/glmed1_l/activation	/forceset/glmed2_l/activation	/forceset/glmed3_l/activation	/forceset/glmin1_l/activation	/forceset/glmin2_l/activation	/forceset/glmin3_l/activation	/forceset/glmin3_l/fiber_length	/forceset/grac_l/activation	/forceset/iliacus_l/activation	/forceset/perbrev_l/activation	/forceset/perbrev_l/fiber_length	/forceset/perlong_l/activation	/forceset/perlong_l/fiber_length	/forceset/piri_l/activation	/forceset/piri_l/fiber_length	/forceset/psoas_l/activation	/forceset/recfem_l/activation	/forceset/recfem_l/fiber_length	/forceset/sart_l/activation	/forceset/semimem_l/activation	/forceset/semimem_l/fiber_length	/forceset/semiten_l/activation	/forceset/semiten_l/fiber_length	/forceset/soleus_l/activation	/forceset/soleus_l/fiber_length	/forceset/tfl_l/activation	/forceset/tfl_l/fiber_length	/forceset/tibant_l/activation	/forceset/tibant_l/fiber_length	/forceset/tibpost_l/activation	/forceset/tibpost_l/fiber_length	/forceset/vasint_l/activation	/forceset/vasint_l/fiber_length	/forceset/vaslat140_l/activation	/forceset/vaslat140_l/fiber_length	/forceset/vasmed_l/activation	/forceset/vasmed_l/fiber_length
      0.00500000	      0.12230077	      0.00000000	     -0.04320911	      0.00000000	      0.12721537	      0.00000000	      0.57783658	      0.00000000	      1.09931060	      0.00000000	      0.36551497	      0.00000000	      0.00000000	      0.00000000	      0.50000000	      0.00000000	      0.00000000	      0.00000000	      0.25000000	      0.00000000	     -0.14160188	      0.00000000	      0.04959838	      0.00000000	     -0.25981574	      0.00000000	      0.08682751	      0.00000000	      0.08682751	      0.00000000	      0.14730879	      0.00000000	     -0.03581560	      0.00000000	      0.00000000	      0.00000000	      0.00000000	      0.00000000	     -0.15398930	      0.00000000	     -0.10299745	      0.00000000	     -0.00580985	      0.00000000	      0.06334469	      0.00000000	      0.06334469	      0.00000000	      0.16331112	      0.00000000	      0.12473767	      0.00000000	      0.00000000	      0.00000000	      0.00000000	      0.00000000	     -0.24393169	      0.00000000	      0.10281494	      0.00000000	     -0.03342322	      0.00000000	      0.05442601	      0.00000000	     -0.46739125	      0.00000000	     -0.15288975	      0.00000000	      0.44657527	      0.00000000	      0.38363815	      0.00000000	      0.00000000	      0.00000000	      0.00000000	      0.00000000	      0.04923435	      0.00000000	     -0.31831170	      0.00000000	     -0.31182770	      0.00000000	      0.50966240	      0.00000000	      0.39144263	      0.00000000	      0.00000000	      0.00000000	      0.00000000	      0.00000000	      0.01000000	      0.01000000	      0.10000000	      0.01000000	      0.01000000	      0.10000000	      0.01000000	      0.01000000	      0.01000000	      0.10000000	      0.01000000	      0.01000000	      0.10000000	      0.01000000	      0.10000000	      0.01000000	      0.10000000	      0.01000000	      0.10000000	      0.01000000	      0.10000000	      0.01000000	      0.10000000	      0.01000000	      0.01000000	      0.01000000	      0.01000000	      0.01000000	      0.01000000	      0.01000000	      0.01000000	      0.01000000	      0.10000000	      0.01000000	      0.01000000	      0.01000000	      0.10000000	      0.01000000	      0.10000000	      0.01000000	      0.10000000	      0.01000000	      0.01000000	      0.10000000	      0.01000000	      0.01000000	      0.10000000	      0.01000000	      0.10000000	      0.01000000	      0.10000000	      0.01000000	      0.10000000	      0.01000000	      0.10000000	      0.01000000	      0.10000000	      0.01000000	      0.10000000	      0.01000000	      0.10000000	      0.01000000	      0.10000000	      0.01000000	      0.01000000	      0.10000000	      0.01000000	      0.01000000	      0.10000000	      0.01000000	      0.01000000	      0.01000000	      0.10000000	      0.01000000	      0.01000000	      0.10000000	      0.01000000	      0.10000000	      0.01000000	      0.10000000	      0.01000000	      0.10000000	      0.01000000	      0.10000000	      0.01000000	      0.10000000	      0.01000000	      0.01000000	      0.01000000	      0.01000000	      0.01000000	      0.01000000	      0.01000000	      0.01000000	      0.01000000	      0.10000000	      0.01000000	      0.01000000	      0.01000000	      0.10000000	      0.01000000	      0.10000000	      0.01000000	      0.10000000	      0.01000000	      0.01000000	      0.10000000	      0.01000000	      0.01000000	      0.10000000	      0.01000000	      0.10000000	      0.01000000	      0.10000000	      0.01000000	      0.10000000	      0.01000000	      0.10000000	      0.01000000	      0.10000000	      0.01000000	      0.10000000	      0.01000000	      0.10000000	      0.01000000	      0.10000000
